<svg xmlns="http://www.w3.org/2000/svg" width="102.222" height="61.938" viewBox="0 0 102.222 61.938">
  <g id="logo" transform="translate(-649.053 -317.4)">
    <path id="パス_2" data-name="パス 2" d="M25.325,48l-5.1-9.7h-6.8V48H4.275V12.95h15.75q6.95,0,10.775,3.225t3.825,9.075a13.821,13.821,0,0,1-1.6,6.825,11.061,11.061,0,0,1-4.65,4.475L35.675,48Zm-11.9-17h6.65A6.166,6.166,0,0,0,24.4,29.6a5.223,5.223,0,0,0,1.525-4.05A5.013,5.013,0,0,0,24.4,21.625a6.238,6.238,0,0,0-4.325-1.375h-6.65Zm52.4-6.15a13.066,13.066,0,0,0-4.05-3.425,9.693,9.693,0,0,0-4.65-1.275A9.094,9.094,0,0,0,52.3,21.475a9.388,9.388,0,0,0-3.425,3.65,11.337,11.337,0,0,0,0,10.35,9.388,9.388,0,0,0,3.425,3.65,9.094,9.094,0,0,0,4.825,1.325,10.612,10.612,0,0,0,4.5-1.1,14.263,14.263,0,0,0,4.2-3l5.35,5.75A21.4,21.4,0,0,1,64.4,46.875a18.81,18.81,0,0,1-17.175-.625,17.537,17.537,0,0,1-6.6-6.55,18.237,18.237,0,0,1-2.4-9.3A17.468,17.468,0,0,1,47.4,14.75a19.931,19.931,0,0,1,17.275-.725,19.086,19.086,0,0,1,6.45,4.425Zm17.8,8.7a7.267,7.267,0,0,0,1.95,5.3,6.619,6.619,0,0,0,4.95,2A6.2,6.2,0,0,0,95.3,38.875a7.538,7.538,0,0,0,1.825-5.325V12.95h9.15v20.6a16,16,0,0,1-1.925,7.975,13.027,13.027,0,0,1-5.5,5.275,17.985,17.985,0,0,1-8.375,1.85A18.292,18.292,0,0,1,82.05,46.8a13.276,13.276,0,0,1-5.6-5.275,15.681,15.681,0,0,1-1.975-7.975V12.95h9.15Z" transform="translate(645 305)"/>
    <path id="パス_1" data-name="パス 1" d="M-43.1-18.226a10.793,10.793,0,0,1,5.057,1.144,8.374,8.374,0,0,1,3.419,3.211A9.146,9.146,0,0,1-33.4-9.126a9.14,9.14,0,0,1-1.235,4.758,8.36,8.36,0,0,1-3.484,3.224A11.228,11.228,0,0,1-43.277,0h-7.67V-18.226Zm.13,14.378a4.6,4.6,0,0,0,2.444-.65,4.418,4.418,0,0,0,1.664-1.846,6.023,6.023,0,0,0,.6-2.73A5.774,5.774,0,0,0-38.9-11.83a4.655,4.655,0,0,0-1.755-1.859,4.9,4.9,0,0,0-2.548-.663h-2.99v10.5Zm12.558-14.378h14.378v3.8h-9.62v3.406h8.684v3.77l-8.684.026V-3.8h9.88V0H-30.407ZM.325-12.74a15.986,15.986,0,0,0-3.107-1.4,9.148,9.148,0,0,0-2.769-.546,2.561,2.561,0,0,0-1.391.325,1.058,1.058,0,0,0-.507.949,1.3,1.3,0,0,0,.442,1,3.383,3.383,0,0,0,1.092.65q.65.247,1.924.637A25.027,25.027,0,0,1-.858-10.036,5.48,5.48,0,0,1,1.261-8.359a4.655,4.655,0,0,1,.884,2.951A5.042,5.042,0,0,1,1.183-2.3,5.833,5.833,0,0,1-1.456-.364a10.248,10.248,0,0,1-3.731.65A13.487,13.487,0,0,1-9.7-.507a12.348,12.348,0,0,1-3.887-2.171L-11.739-6.4a11.488,11.488,0,0,0,3.263,2,8.907,8.907,0,0,0,3.341.78A3.1,3.1,0,0,0-3.458-4a1.272,1.272,0,0,0,.611-1.144A1.351,1.351,0,0,0-3.3-6.188a3.343,3.343,0,0,0-1.144-.663q-.689-.247-1.937-.585A23.9,23.9,0,0,1-9.477-8.489,5.476,5.476,0,0,1-11.57-10.1a4.438,4.438,0,0,1-.871-2.873,5.018,5.018,0,0,1,.9-2.964A5.709,5.709,0,0,1-9-17.9a9.9,9.9,0,0,1,3.835-.689,13.911,13.911,0,0,1,3.9.559,12.837,12.837,0,0,1,3.38,1.5Zm4.862-5.486H9.945V0H5.187ZM26.169-9.308h4.108v7.254A12.151,12.151,0,0,1,26.7-.325a13.463,13.463,0,0,1-4.017.663A10.077,10.077,0,0,1,17.706-.9a9.136,9.136,0,0,1-3.5-3.393,9.333,9.333,0,0,1-1.274-4.836,9.006,9.006,0,0,1,1.313-4.8,9.212,9.212,0,0,1,3.614-3.367A10.775,10.775,0,0,1,23-18.512a11.749,11.749,0,0,1,4.056.741,10.549,10.549,0,0,1,3.432,1.989l-2.7,3.328a7.584,7.584,0,0,0-2.275-1.482,6.458,6.458,0,0,0-2.535-.546,5,5,0,0,0-2.626.7A5.051,5.051,0,0,0,18.5-11.856a5.544,5.544,0,0,0-.676,2.73A5.671,5.671,0,0,0,18.5-6.357,4.967,4.967,0,0,0,20.371-4.42a5.142,5.142,0,0,0,2.652.7A7.193,7.193,0,0,0,26.169-4.6ZM46.5-18.226h4.42V0h-4.16L38.493-10.894V0H34.047V-18.226h4.186L46.527-7.254Z" transform="translate(700 379)"/>
  </g>
</svg>
